<svg xmlns="http://www.w3.org/2000/svg" width="16.827" height="26.727" viewBox="0 0 16.827 26.727">
  <g id="down-arrow" transform="matrix(0.035, 0.999, -0.999, 0.035, 15.913, 0)">
    <g id="Group_9" data-name="Group 9" transform="translate(0 0)">
      <path id="Path_6" data-name="Path 6" d="M26.02,15.729a.514.514,0,0,1-.805,0L13.094,1.6.972,15.727a.514.514,0,0,1-.8,0,.744.744,0,0,1,0-.938L12.691.194a.533.533,0,0,1,.4-.194.527.527,0,0,1,.4.2l12.524,14.6A.744.744,0,0,1,26.02,15.729Z" transform="translate(0 0)"/>
    </g>
  </g>
</svg>
