<svg xmlns="http://www.w3.org/2000/svg" width="10.924" height="17.35" viewBox="0 0 10.924 17.35">
  <g id="down-arrow" transform="translate(128.177 4.455) rotate(92)">
    <g id="Group_9" data-name="Group 9" transform="translate(0 117.325)">
      <path id="Path_6" data-name="Path 6" d="M16.892,117.451a.334.334,0,0,0-.523,0L8.5,126.622l-7.87-9.17a.334.334,0,0,0-.523,0,.483.483,0,0,0,0,.609l8.131,9.475a.346.346,0,0,0,.262.126.342.342,0,0,0,.261-.127l8.131-9.475A.483.483,0,0,0,16.892,117.451Z" transform="translate(0 -117.325)" fill="#0d7377"/>
    </g>
  </g>
</svg>
