<svg xmlns="http://www.w3.org/2000/svg" width="17.178" height="10.632" viewBox="0 0 17.178 10.632"><g transform="translate(-3936.911 -489)"><g transform="matrix(-1, 0.017, -0.017, -1, 3956.136, 616.642)"><g transform="translate(0 117.325)"><path d="M16.892,117.451a.334.334,0,0,0-.523,0L8.5,126.622l-7.87-9.17a.334.334,0,0,0-.523,0,.483.483,0,0,0,0,.609l8.131,9.475a.346.346,0,0,0,.262.126.342.342,0,0,0,.261-.127l8.131-9.475A.483.483,0,0,0,16.892,117.451Z" transform="translate(0 -117.325)"/></g></g></g></svg>