<svg id="surface1" xmlns="http://www.w3.org/2000/svg" width="15" height="14.953" viewBox="0 0 15 14.953">
  <path id="Path_12" data-name="Path 12" d="M7.477,13.731H1.867a.624.624,0,0,1-.621-.625V1.895a.624.624,0,0,1,.621-.625H7.477a.623.623,0,0,0,0-1.246H1.867A1.873,1.873,0,0,0,0,1.895V13.106a1.873,1.873,0,0,0,1.867,1.871H7.477a.623.623,0,0,0,0-1.246Zm0,0" transform="translate(0 -0.023)" fill="#0d7377"/>
  <path id="Path_13" data-name="Path 13" d="M14.813,7.055,11.027,3.32a.623.623,0,1,0-.875.887l2.707,2.672H5.605a.621.621,0,1,0,0,1.242h7.254l-2.707,2.672a.627.627,0,0,0-.008.883.64.64,0,0,0,.445.184.618.618,0,0,0,.438-.18l3.785-3.734A.617.617,0,0,0,15,7.5.624.624,0,0,0,14.813,7.055Zm0,0" transform="translate(0 -0.023)" fill="#0d7377"/>
</svg>
