<svg xmlns="http://www.w3.org/2000/svg" width="30" height="30" viewBox="0 0 30 30">
  <g id="paper-plane" transform="translate(0 0)">
    <path id="Path_10" data-name="Path 10" d="M8.75,17.612V22.25a.75.75,0,0,0,1.354.444L12.817,19Z" transform="translate(2.634 7)" fill="#0d7377"/>
    <path id="Path_11" data-name="Path 11" d="M29.606.188a.88.88,0,0,0-.977-.073L.5,15.977a1.034,1.034,0,0,0-.5.975,1,1,0,0,0,.631.882L8.452,20.72,25.1,5.343,12.219,22.109l13.1,4.837a.879.879,0,0,0,.79-.093,1.025,1.025,0,0,0,.44-.715L29.99,1.162a1.051,1.051,0,0,0-.384-.975Z" transform="translate(0 0)" fill="#0d7377"/>
  </g>
</svg>
