<svg xmlns="http://www.w3.org/2000/svg" width="16.387" height="17" viewBox="0 0 16.387 17"><g transform="translate(-3933.307 -411.71)"><g transform="translate(3930.304 409.71)"><path d="M15.391,17V7.25H7V17ZM12.035,8.875h1.677v6.5H12.035Zm-3.355,0h1.677v6.5H8.68ZM8.68,4h5.032V5.625H8.68Z" fill="none"/><path d="M4.824,17.3A1.765,1.765,0,0,0,6.644,19h9.1a1.765,1.765,0,0,0,1.821-1.7V7.1H19.39V5.4H15.748V3.7A1.765,1.765,0,0,0,13.927,2H8.465A1.765,1.765,0,0,0,6.644,3.7V5.4H3V7.1H4.824ZM8.465,3.7h5.462V5.4H8.465Zm-.91,3.4h8.193V17.3h-9.1V7.1Z" fill="#fff"/><path d="M9,10h2v8H9Zm4,0h2v8H13Z" transform="translate(-0.807 -2)" fill="#fff"/></g></g></svg>